M48
INCH,TZ
T01C.015748
;LEADER: 12 
;HEADER: 
;CODE  : ASCII 
;FILE  : SHEMA 27-1-2.drl for  ... layers TOP and BOTTOM
;DESIGN: SHEMA 2.7 .brd
;T01 Holesize 1. = 15.748031 Tolerance = +0.000000/-0.000000 PLATED MILS Quantity = 29
%
G90
T01
X89764Y111417
X133071Y80709
X97244Y85433
X103937Y90157
X117323Y53150
X63780Y61024
X119291Y69685
X27165Y52362
X109449Y89764
X93307Y77614
X30315Y74016
X25591Y97244
X63780Y77165
X82677Y114567
X66535Y96063
X64173Y101969
X36988Y106280
X131496Y125591
X85827Y146457
X144882Y71260
X85433Y26378
X27559Y13386
X129947Y20105
X86220Y50000
X132283Y138189
X124016
X50000Y35039
X64173Y40551
X89370Y61811
M30
